<mxfile host="app.diagrams.net" agent="Mozilla/5.0 (Macintosh; Intel Mac OS X 10_15_7) AppleWebKit/605.1.15 (KHTML, like Gecko) Version/18.5 Safari/605.1.15" version="27.1.4" pages="2">
  <diagram name="fmea_2025" id="N0rif7YGwo7ToFzK75tH">
    <mxGraphModel dx="564" dy="289" grid="1" gridSize="10" guides="1" tooltips="1" connect="1" arrows="1" fold="1" page="1" pageScale="1" pageWidth="827" pageHeight="1169" math="0" shadow="0">
      <root>
        <mxCell id="0" />
        <mxCell id="1" parent="0" />
        <mxCell id="nqYgzYCpDSy92SDL6qgz-1" value="" style="rounded=0;whiteSpace=wrap;html=1;dashed=1;" vertex="1" parent="1">
          <mxGeometry x="80" y="80" width="80" height="70" as="geometry" />
        </mxCell>
        <mxCell id="cA4AfecdYy-TmSSKwoLd-9" style="edgeStyle=orthogonalEdgeStyle;rounded=0;orthogonalLoop=1;jettySize=auto;html=1;exitX=1;exitY=0.5;exitDx=0;exitDy=0;endArrow=none;startFill=0;" edge="1" parent="1" source="cA4AfecdYy-TmSSKwoLd-1">
          <mxGeometry relative="1" as="geometry">
            <mxPoint x="200" y="415" as="targetPoint" />
            <Array as="points">
              <mxPoint x="190" y="415" />
              <mxPoint x="190" y="415" />
            </Array>
          </mxGeometry>
        </mxCell>
        <mxCell id="63443LQwcvUuvQC3zTOk-1" value="&lt;i&gt;f&lt;/i&gt;&lt;sub&gt;1&lt;/sub&gt;" style="rounded=0;whiteSpace=wrap;html=1;" vertex="1" parent="1">
          <mxGeometry x="90" y="400" width="70" height="30" as="geometry" />
        </mxCell>
        <mxCell id="63443LQwcvUuvQC3zTOk-2" value="&lt;i&gt;C&lt;/i&gt;&lt;sub&gt;1&lt;/sub&gt;" style="text;html=1;align=center;verticalAlign=middle;resizable=0;points=[];autosize=1;strokeColor=none;fillColor=none;" vertex="1" parent="1">
          <mxGeometry x="105" y="370" width="40" height="30" as="geometry" />
        </mxCell>
        <mxCell id="cA4AfecdYy-TmSSKwoLd-11" style="edgeStyle=orthogonalEdgeStyle;rounded=0;orthogonalLoop=1;jettySize=auto;html=1;entryX=0;entryY=0.5;entryDx=0;entryDy=0;" edge="1" parent="1" source="cA4AfecdYy-TmSSKwoLd-8" target="cA4AfecdYy-TmSSKwoLd-17">
          <mxGeometry relative="1" as="geometry">
            <mxPoint x="250" y="350" as="targetPoint" />
            <Array as="points">
              <mxPoint x="183" y="355" />
            </Array>
          </mxGeometry>
        </mxCell>
        <mxCell id="cA4AfecdYy-TmSSKwoLd-8" value="&lt;i&gt;e&lt;/i&gt;&lt;sub&gt;1&lt;/sub&gt;" style="text;html=1;align=center;verticalAlign=middle;resizable=0;points=[];autosize=1;strokeColor=none;fillColor=none;" vertex="1" parent="1">
          <mxGeometry x="163" y="430" width="40" height="30" as="geometry" />
        </mxCell>
        <mxCell id="cA4AfecdYy-TmSSKwoLd-10" value="" style="edgeStyle=orthogonalEdgeStyle;rounded=0;orthogonalLoop=1;jettySize=auto;html=1;exitX=1;exitY=0.5;exitDx=0;exitDy=0;endArrow=none;startFill=0;" edge="1" parent="1" source="63443LQwcvUuvQC3zTOk-1" target="cA4AfecdYy-TmSSKwoLd-1">
          <mxGeometry relative="1" as="geometry">
            <mxPoint x="200" y="415" as="targetPoint" />
            <mxPoint x="160" y="415" as="sourcePoint" />
          </mxGeometry>
        </mxCell>
        <mxCell id="cA4AfecdYy-TmSSKwoLd-1" value="" style="ellipse;whiteSpace=wrap;html=1;fillColor=#000000;" vertex="1" parent="1">
          <mxGeometry x="180" y="412.5" width="6" height="5" as="geometry" />
        </mxCell>
        <mxCell id="cA4AfecdYy-TmSSKwoLd-28" style="edgeStyle=orthogonalEdgeStyle;rounded=0;orthogonalLoop=1;jettySize=auto;html=1;exitX=1;exitY=0.5;exitDx=0;exitDy=0;endArrow=none;startFill=0;" edge="1" parent="1" source="cA4AfecdYy-TmSSKwoLd-13">
          <mxGeometry relative="1" as="geometry">
            <mxPoint x="380" y="264.72413793103465" as="targetPoint" />
          </mxGeometry>
        </mxCell>
        <mxCell id="cA4AfecdYy-TmSSKwoLd-13" value="&lt;i&gt;f&lt;/i&gt;&lt;sub&gt;2&lt;/sub&gt;" style="rounded=0;whiteSpace=wrap;html=1;" vertex="1" parent="1">
          <mxGeometry x="230" y="250" width="70" height="30" as="geometry" />
        </mxCell>
        <mxCell id="cA4AfecdYy-TmSSKwoLd-14" value="&lt;i&gt;C&lt;/i&gt;&lt;sub&gt;2&lt;/sub&gt;" style="text;html=1;align=center;verticalAlign=middle;resizable=0;points=[];autosize=1;strokeColor=none;fillColor=none;" vertex="1" parent="1">
          <mxGeometry x="245" y="220" width="40" height="30" as="geometry" />
        </mxCell>
        <mxCell id="cA4AfecdYy-TmSSKwoLd-27" style="edgeStyle=orthogonalEdgeStyle;rounded=0;orthogonalLoop=1;jettySize=auto;html=1;exitX=1;exitY=0.5;exitDx=0;exitDy=0;endArrow=none;startFill=0;" edge="1" parent="1" source="cA4AfecdYy-TmSSKwoLd-15">
          <mxGeometry relative="1" as="geometry">
            <mxPoint x="380" y="295.0689655172414" as="targetPoint" />
          </mxGeometry>
        </mxCell>
        <mxCell id="cA4AfecdYy-TmSSKwoLd-15" value="&lt;i&gt;f&lt;/i&gt;&lt;sub&gt;3&lt;/sub&gt;" style="rounded=0;whiteSpace=wrap;html=1;" vertex="1" parent="1">
          <mxGeometry x="230" y="280" width="70" height="30" as="geometry" />
        </mxCell>
        <mxCell id="cA4AfecdYy-TmSSKwoLd-26" style="edgeStyle=orthogonalEdgeStyle;rounded=0;orthogonalLoop=1;jettySize=auto;html=1;exitX=1;exitY=0.5;exitDx=0;exitDy=0;endArrow=none;startFill=0;" edge="1" parent="1" source="cA4AfecdYy-TmSSKwoLd-16">
          <mxGeometry relative="1" as="geometry">
            <mxPoint x="380" y="324.72413793103465" as="targetPoint" />
          </mxGeometry>
        </mxCell>
        <mxCell id="cA4AfecdYy-TmSSKwoLd-16" value="&lt;i&gt;f&lt;/i&gt;&lt;sub&gt;4&lt;/sub&gt;" style="rounded=0;whiteSpace=wrap;html=1;" vertex="1" parent="1">
          <mxGeometry x="230" y="310" width="70" height="30" as="geometry" />
        </mxCell>
        <mxCell id="cA4AfecdYy-TmSSKwoLd-25" style="edgeStyle=orthogonalEdgeStyle;rounded=0;orthogonalLoop=1;jettySize=auto;html=1;exitX=1;exitY=0.5;exitDx=0;exitDy=0;endArrow=none;startFill=0;" edge="1" parent="1" source="cA4AfecdYy-TmSSKwoLd-17">
          <mxGeometry relative="1" as="geometry">
            <mxPoint x="380" y="355" as="targetPoint" />
          </mxGeometry>
        </mxCell>
        <mxCell id="cA4AfecdYy-TmSSKwoLd-17" value="" style="rounded=0;whiteSpace=wrap;html=1;" vertex="1" parent="1">
          <mxGeometry x="230" y="340" width="70" height="30" as="geometry" />
        </mxCell>
        <mxCell id="cA4AfecdYy-TmSSKwoLd-19" value="" style="ellipse;whiteSpace=wrap;html=1;fillColor=#000000;" vertex="1" parent="1">
          <mxGeometry x="320" y="352.5" width="6" height="5" as="geometry" />
        </mxCell>
        <mxCell id="cA4AfecdYy-TmSSKwoLd-21" value="" style="ellipse;whiteSpace=wrap;html=1;fillColor=#000000;" vertex="1" parent="1">
          <mxGeometry x="360" y="352.5" width="6" height="5" as="geometry" />
        </mxCell>
        <mxCell id="cA4AfecdYy-TmSSKwoLd-32" style="edgeStyle=orthogonalEdgeStyle;rounded=0;orthogonalLoop=1;jettySize=auto;html=1;entryX=0;entryY=0.5;entryDx=0;entryDy=0;" edge="1" parent="1" source="cA4AfecdYy-TmSSKwoLd-23" target="cA4AfecdYy-TmSSKwoLd-30">
          <mxGeometry relative="1" as="geometry">
            <Array as="points">
              <mxPoint x="323" y="185" />
            </Array>
          </mxGeometry>
        </mxCell>
        <mxCell id="cA4AfecdYy-TmSSKwoLd-23" value="&lt;i&gt;e&lt;/i&gt;&lt;sub&gt;2&lt;/sub&gt;" style="text;html=1;align=center;verticalAlign=middle;resizable=0;points=[];autosize=1;strokeColor=none;fillColor=none;" vertex="1" parent="1">
          <mxGeometry x="303" y="370" width="40" height="30" as="geometry" />
        </mxCell>
        <mxCell id="cA4AfecdYy-TmSSKwoLd-33" style="edgeStyle=orthogonalEdgeStyle;rounded=0;orthogonalLoop=1;jettySize=auto;html=1;entryX=0;entryY=0.5;entryDx=0;entryDy=0;" edge="1" parent="1" source="cA4AfecdYy-TmSSKwoLd-24" target="cA4AfecdYy-TmSSKwoLd-29">
          <mxGeometry relative="1" as="geometry">
            <Array as="points">
              <mxPoint x="363" y="215" />
            </Array>
          </mxGeometry>
        </mxCell>
        <mxCell id="cA4AfecdYy-TmSSKwoLd-24" value="&lt;i&gt;e&lt;/i&gt;&lt;sub&gt;3&lt;/sub&gt;" style="text;html=1;align=center;verticalAlign=middle;resizable=0;points=[];autosize=1;strokeColor=none;fillColor=none;" vertex="1" parent="1">
          <mxGeometry x="343" y="370" width="40" height="30" as="geometry" />
        </mxCell>
        <mxCell id="cA4AfecdYy-TmSSKwoLd-29" value="" style="rounded=0;whiteSpace=wrap;html=1;" vertex="1" parent="1">
          <mxGeometry x="400" y="200" width="70" height="30" as="geometry" />
        </mxCell>
        <mxCell id="cA4AfecdYy-TmSSKwoLd-30" value="" style="rounded=0;whiteSpace=wrap;html=1;" vertex="1" parent="1">
          <mxGeometry x="400" y="170" width="70" height="30" as="geometry" />
        </mxCell>
        <mxCell id="cA4AfecdYy-TmSSKwoLd-35" value="&lt;i&gt;f&lt;/i&gt;&lt;sub&gt;5&lt;/sub&gt;" style="rounded=0;whiteSpace=wrap;html=1;" vertex="1" parent="1">
          <mxGeometry x="400" y="140" width="70" height="30" as="geometry" />
        </mxCell>
        <mxCell id="cA4AfecdYy-TmSSKwoLd-36" value="&lt;i&gt;C&lt;/i&gt;&lt;sub&gt;3&lt;/sub&gt;" style="text;html=1;align=center;verticalAlign=middle;resizable=0;points=[];autosize=1;strokeColor=none;fillColor=none;" vertex="1" parent="1">
          <mxGeometry x="415" y="110" width="40" height="30" as="geometry" />
        </mxCell>
        <mxCell id="cA4AfecdYy-TmSSKwoLd-37" value="" style="ellipse;whiteSpace=wrap;html=1;fillColor=#000000;" vertex="1" parent="1">
          <mxGeometry x="490" y="212.5" width="6" height="5" as="geometry" />
        </mxCell>
        <mxCell id="cA4AfecdYy-TmSSKwoLd-38" value="" style="ellipse;whiteSpace=wrap;html=1;fillColor=#000000;" vertex="1" parent="1">
          <mxGeometry x="530" y="212.5" width="6" height="5" as="geometry" />
        </mxCell>
        <mxCell id="cA4AfecdYy-TmSSKwoLd-39" value="" style="ellipse;whiteSpace=wrap;html=1;fillColor=#000000;" vertex="1" parent="1">
          <mxGeometry x="570" y="212.5" width="6" height="5" as="geometry" />
        </mxCell>
        <mxCell id="cA4AfecdYy-TmSSKwoLd-40" value="&lt;i&gt;e&lt;/i&gt;&lt;sub&gt;4&lt;/sub&gt;" style="text;html=1;align=center;verticalAlign=middle;resizable=0;points=[];autosize=1;strokeColor=none;fillColor=none;" vertex="1" parent="1">
          <mxGeometry x="473" y="230" width="40" height="30" as="geometry" />
        </mxCell>
        <mxCell id="cA4AfecdYy-TmSSKwoLd-41" value="&lt;i&gt;e&lt;/i&gt;&lt;sub&gt;5&lt;/sub&gt;" style="text;html=1;align=center;verticalAlign=middle;resizable=0;points=[];autosize=1;strokeColor=none;fillColor=none;" vertex="1" parent="1">
          <mxGeometry x="513" y="230" width="40" height="30" as="geometry" />
        </mxCell>
        <mxCell id="cA4AfecdYy-TmSSKwoLd-42" value="&lt;i&gt;e&lt;/i&gt;&lt;sub&gt;6&lt;/sub&gt;" style="text;html=1;align=center;verticalAlign=middle;resizable=0;points=[];autosize=1;strokeColor=none;fillColor=none;" vertex="1" parent="1">
          <mxGeometry x="553" y="230" width="40" height="30" as="geometry" />
        </mxCell>
      </root>
    </mxGraphModel>
  </diagram>
  <diagram id="u4ehhmUwieLTaDszbvfy" name="fmea_2024">
    <mxGraphModel dx="564" dy="289" grid="1" gridSize="10" guides="1" tooltips="1" connect="1" arrows="1" fold="1" page="1" pageScale="1" pageWidth="827" pageHeight="1169" math="0" shadow="0">
      <root>
        <mxCell id="0" />
        <mxCell id="1" parent="0" />
        <mxCell id="nuxYN99W2bETs9J3J-wg-1" style="edgeStyle=orthogonalEdgeStyle;rounded=0;orthogonalLoop=1;jettySize=auto;html=1;exitX=1;exitY=0.5;exitDx=0;exitDy=0;endArrow=none;endFill=0;" parent="1" source="nuxYN99W2bETs9J3J-wg-22" edge="1">
          <mxGeometry relative="1" as="geometry">
            <mxPoint x="360" y="605" as="targetPoint" />
          </mxGeometry>
        </mxCell>
        <mxCell id="nuxYN99W2bETs9J3J-wg-2" value="" style="rounded=0;whiteSpace=wrap;html=1;" parent="1" vertex="1">
          <mxGeometry x="230" y="590" width="70" height="30" as="geometry" />
        </mxCell>
        <mxCell id="nuxYN99W2bETs9J3J-wg-3" value="C2" style="text;html=1;align=center;verticalAlign=middle;resizable=0;points=[];autosize=1;strokeColor=none;fillColor=none;" parent="1" vertex="1">
          <mxGeometry x="245" y="560" width="40" height="30" as="geometry" />
        </mxCell>
        <mxCell id="nuxYN99W2bETs9J3J-wg-4" style="edgeStyle=orthogonalEdgeStyle;rounded=0;orthogonalLoop=1;jettySize=auto;html=1;exitX=1;exitY=0.5;exitDx=0;exitDy=0;endArrow=none;endFill=0;" parent="1" source="nuxYN99W2bETs9J3J-wg-24" edge="1">
          <mxGeometry relative="1" as="geometry">
            <mxPoint x="360" y="635" as="targetPoint" />
          </mxGeometry>
        </mxCell>
        <mxCell id="nuxYN99W2bETs9J3J-wg-5" style="edgeStyle=orthogonalEdgeStyle;rounded=0;orthogonalLoop=1;jettySize=auto;html=1;exitX=0;exitY=0.5;exitDx=0;exitDy=0;endArrow=none;endFill=0;" parent="1" source="nuxYN99W2bETs9J3J-wg-6" edge="1">
          <mxGeometry relative="1" as="geometry">
            <mxPoint x="190" y="420" as="targetPoint" />
          </mxGeometry>
        </mxCell>
        <mxCell id="nuxYN99W2bETs9J3J-wg-6" value="" style="rounded=0;whiteSpace=wrap;html=1;" parent="1" vertex="1">
          <mxGeometry x="230" y="620" width="70" height="30" as="geometry" />
        </mxCell>
        <mxCell id="nuxYN99W2bETs9J3J-wg-7" value="f&lt;sub&gt;2&lt;/sub&gt;" style="text;html=1;align=center;verticalAlign=middle;resizable=0;points=[];autosize=1;strokeColor=none;fillColor=none;" parent="1" vertex="1">
          <mxGeometry x="250" y="590" width="30" height="30" as="geometry" />
        </mxCell>
        <mxCell id="nuxYN99W2bETs9J3J-wg-8" style="edgeStyle=orthogonalEdgeStyle;rounded=0;orthogonalLoop=1;jettySize=auto;html=1;exitX=1;exitY=0.5;exitDx=0;exitDy=0;endArrow=none;endFill=0;" parent="1" source="nuxYN99W2bETs9J3J-wg-45" edge="1">
          <mxGeometry relative="1" as="geometry">
            <mxPoint x="540" y="485" as="targetPoint" />
          </mxGeometry>
        </mxCell>
        <mxCell id="nuxYN99W2bETs9J3J-wg-9" value="" style="rounded=0;whiteSpace=wrap;html=1;" parent="1" vertex="1">
          <mxGeometry x="374" y="470" width="70" height="30" as="geometry" />
        </mxCell>
        <mxCell id="nuxYN99W2bETs9J3J-wg-10" value="C3" style="text;html=1;align=center;verticalAlign=middle;resizable=0;points=[];autosize=1;strokeColor=none;fillColor=none;" parent="1" vertex="1">
          <mxGeometry x="389" y="440" width="40" height="30" as="geometry" />
        </mxCell>
        <mxCell id="nuxYN99W2bETs9J3J-wg-11" style="edgeStyle=orthogonalEdgeStyle;rounded=0;orthogonalLoop=1;jettySize=auto;html=1;exitX=1;exitY=0.5;exitDx=0;exitDy=0;endArrow=none;endFill=0;" parent="1" source="nuxYN99W2bETs9J3J-wg-47" edge="1">
          <mxGeometry relative="1" as="geometry">
            <mxPoint x="540" y="515" as="targetPoint" />
          </mxGeometry>
        </mxCell>
        <mxCell id="nuxYN99W2bETs9J3J-wg-12" style="edgeStyle=orthogonalEdgeStyle;rounded=0;orthogonalLoop=1;jettySize=auto;html=1;exitX=0;exitY=0.5;exitDx=0;exitDy=0;endArrow=none;endFill=0;startArrow=classic;startFill=1;" parent="1" source="nuxYN99W2bETs9J3J-wg-13" edge="1">
          <mxGeometry relative="1" as="geometry">
            <mxPoint x="190" y="514.6666666666667" as="targetPoint" />
          </mxGeometry>
        </mxCell>
        <mxCell id="nuxYN99W2bETs9J3J-wg-13" value="" style="rounded=0;whiteSpace=wrap;html=1;" parent="1" vertex="1">
          <mxGeometry x="374" y="500" width="70" height="30" as="geometry" />
        </mxCell>
        <mxCell id="nuxYN99W2bETs9J3J-wg-14" value="f&lt;sub&gt;3&lt;/sub&gt;" style="text;html=1;align=center;verticalAlign=middle;resizable=0;points=[];autosize=1;strokeColor=none;fillColor=none;" parent="1" vertex="1">
          <mxGeometry x="394" y="470" width="30" height="30" as="geometry" />
        </mxCell>
        <mxCell id="nuxYN99W2bETs9J3J-wg-15" style="edgeStyle=orthogonalEdgeStyle;rounded=0;orthogonalLoop=1;jettySize=auto;html=1;exitX=0;exitY=0.5;exitDx=0;exitDy=0;startArrow=classic;startFill=1;endArrow=none;endFill=0;" parent="1" source="nuxYN99W2bETs9J3J-wg-18" edge="1">
          <mxGeometry relative="1" as="geometry">
            <mxPoint x="320" y="650" as="targetPoint" />
          </mxGeometry>
        </mxCell>
        <mxCell id="nuxYN99W2bETs9J3J-wg-16" style="edgeStyle=orthogonalEdgeStyle;rounded=0;orthogonalLoop=1;jettySize=auto;html=1;startArrow=classic;startFill=1;endArrow=none;endFill=0;" parent="1" edge="1">
          <mxGeometry relative="1" as="geometry">
            <mxPoint x="350" y="650" as="targetPoint" />
            <mxPoint x="350" y="580" as="sourcePoint" />
          </mxGeometry>
        </mxCell>
        <mxCell id="nuxYN99W2bETs9J3J-wg-17" style="edgeStyle=orthogonalEdgeStyle;rounded=0;orthogonalLoop=1;jettySize=auto;html=1;exitX=1;exitY=0.5;exitDx=0;exitDy=0;endArrow=none;endFill=0;" parent="1" source="nuxYN99W2bETs9J3J-wg-51" edge="1">
          <mxGeometry relative="1" as="geometry">
            <mxPoint x="540" y="545" as="targetPoint" />
          </mxGeometry>
        </mxCell>
        <mxCell id="nuxYN99W2bETs9J3J-wg-18" value="" style="rounded=0;whiteSpace=wrap;html=1;" parent="1" vertex="1">
          <mxGeometry x="374" y="530" width="70" height="30" as="geometry" />
        </mxCell>
        <mxCell id="nuxYN99W2bETs9J3J-wg-19" value="e&lt;sub&gt;2&lt;/sub&gt;" style="text;html=1;align=center;verticalAlign=middle;resizable=0;points=[];autosize=1;strokeColor=none;fillColor=none;" parent="1" vertex="1">
          <mxGeometry x="300" y="650" width="40" height="30" as="geometry" />
        </mxCell>
        <mxCell id="nuxYN99W2bETs9J3J-wg-20" value="e&lt;sub&gt;3&lt;/sub&gt;" style="text;html=1;align=center;verticalAlign=middle;resizable=0;points=[];autosize=1;strokeColor=none;fillColor=none;" parent="1" vertex="1">
          <mxGeometry x="330" y="650" width="40" height="30" as="geometry" />
        </mxCell>
        <mxCell id="nuxYN99W2bETs9J3J-wg-21" value="" style="edgeStyle=orthogonalEdgeStyle;rounded=0;orthogonalLoop=1;jettySize=auto;html=1;exitX=1;exitY=0.5;exitDx=0;exitDy=0;endArrow=none;endFill=0;entryX=0;entryY=0.5;entryDx=0;entryDy=0;" parent="1" source="nuxYN99W2bETs9J3J-wg-2" target="nuxYN99W2bETs9J3J-wg-22" edge="1">
          <mxGeometry relative="1" as="geometry">
            <mxPoint x="317" y="605" as="targetPoint" />
            <mxPoint x="300" y="605" as="sourcePoint" />
          </mxGeometry>
        </mxCell>
        <mxCell id="nuxYN99W2bETs9J3J-wg-22" value="" style="ellipse;whiteSpace=wrap;html=1;fillColor=#000000;" parent="1" vertex="1">
          <mxGeometry x="347" y="602.5" width="6" height="5" as="geometry" />
        </mxCell>
        <mxCell id="nuxYN99W2bETs9J3J-wg-23" value="" style="edgeStyle=orthogonalEdgeStyle;rounded=0;orthogonalLoop=1;jettySize=auto;html=1;exitX=1;exitY=0.5;exitDx=0;exitDy=0;endArrow=none;endFill=0;" parent="1" source="nuxYN99W2bETs9J3J-wg-69" target="nuxYN99W2bETs9J3J-wg-24" edge="1">
          <mxGeometry relative="1" as="geometry">
            <mxPoint x="360" y="635" as="targetPoint" />
            <mxPoint x="300" y="635" as="sourcePoint" />
          </mxGeometry>
        </mxCell>
        <mxCell id="nuxYN99W2bETs9J3J-wg-24" value="" style="ellipse;whiteSpace=wrap;html=1;fillColor=#000000;" parent="1" vertex="1">
          <mxGeometry x="347" y="632.5" width="6" height="5" as="geometry" />
        </mxCell>
        <mxCell id="nuxYN99W2bETs9J3J-wg-25" style="edgeStyle=orthogonalEdgeStyle;rounded=0;orthogonalLoop=1;jettySize=auto;html=1;exitX=1;exitY=0.5;exitDx=0;exitDy=0;endArrow=none;endFill=0;" parent="1" source="nuxYN99W2bETs9J3J-wg-56" edge="1">
          <mxGeometry relative="1" as="geometry">
            <mxPoint x="730" y="335" as="targetPoint" />
          </mxGeometry>
        </mxCell>
        <mxCell id="nuxYN99W2bETs9J3J-wg-26" style="edgeStyle=orthogonalEdgeStyle;rounded=0;orthogonalLoop=1;jettySize=auto;html=1;exitX=1;exitY=0.5;exitDx=0;exitDy=0;entryX=0;entryY=0.5;entryDx=0;entryDy=0;endArrow=none;endFill=0;" parent="1" source="nuxYN99W2bETs9J3J-wg-27" target="nuxYN99W2bETs9J3J-wg-56" edge="1">
          <mxGeometry relative="1" as="geometry" />
        </mxCell>
        <mxCell id="nuxYN99W2bETs9J3J-wg-27" value="" style="rounded=0;whiteSpace=wrap;html=1;" parent="1" vertex="1">
          <mxGeometry x="600" y="320" width="70" height="30" as="geometry" />
        </mxCell>
        <mxCell id="nuxYN99W2bETs9J3J-wg-28" value="C4" style="text;html=1;align=center;verticalAlign=middle;resizable=0;points=[];autosize=1;strokeColor=none;fillColor=none;" parent="1" vertex="1">
          <mxGeometry x="615" y="290" width="40" height="30" as="geometry" />
        </mxCell>
        <mxCell id="nuxYN99W2bETs9J3J-wg-29" style="edgeStyle=orthogonalEdgeStyle;rounded=0;orthogonalLoop=1;jettySize=auto;html=1;exitX=1;exitY=0.5;exitDx=0;exitDy=0;endArrow=none;endFill=0;" parent="1" source="nuxYN99W2bETs9J3J-wg-60" edge="1">
          <mxGeometry relative="1" as="geometry">
            <mxPoint x="730" y="365" as="targetPoint" />
          </mxGeometry>
        </mxCell>
        <mxCell id="nuxYN99W2bETs9J3J-wg-30" value="" style="rounded=0;whiteSpace=wrap;html=1;" parent="1" vertex="1">
          <mxGeometry x="600" y="350" width="70" height="30" as="geometry" />
        </mxCell>
        <mxCell id="nuxYN99W2bETs9J3J-wg-31" style="edgeStyle=orthogonalEdgeStyle;rounded=0;orthogonalLoop=1;jettySize=auto;html=1;exitX=0;exitY=0.5;exitDx=0;exitDy=0;startArrow=classic;startFill=1;endArrow=none;endFill=0;" parent="1" source="nuxYN99W2bETs9J3J-wg-34" edge="1">
          <mxGeometry relative="1" as="geometry">
            <mxPoint x="470" y="560" as="targetPoint" />
          </mxGeometry>
        </mxCell>
        <mxCell id="nuxYN99W2bETs9J3J-wg-32" style="edgeStyle=orthogonalEdgeStyle;rounded=0;orthogonalLoop=1;jettySize=auto;html=1;exitX=1;exitY=0.5;exitDx=0;exitDy=0;endArrow=none;endFill=0;" parent="1" source="nuxYN99W2bETs9J3J-wg-57" edge="1">
          <mxGeometry relative="1" as="geometry">
            <mxPoint x="730" y="395" as="targetPoint" />
          </mxGeometry>
        </mxCell>
        <mxCell id="nuxYN99W2bETs9J3J-wg-33" style="edgeStyle=orthogonalEdgeStyle;rounded=0;orthogonalLoop=1;jettySize=auto;html=1;exitX=1;exitY=0.5;exitDx=0;exitDy=0;entryX=0;entryY=0.5;entryDx=0;entryDy=0;endArrow=none;endFill=0;" parent="1" source="nuxYN99W2bETs9J3J-wg-34" target="nuxYN99W2bETs9J3J-wg-57" edge="1">
          <mxGeometry relative="1" as="geometry" />
        </mxCell>
        <mxCell id="nuxYN99W2bETs9J3J-wg-34" value="" style="rounded=0;whiteSpace=wrap;html=1;" parent="1" vertex="1">
          <mxGeometry x="600" y="380" width="70" height="30" as="geometry" />
        </mxCell>
        <mxCell id="nuxYN99W2bETs9J3J-wg-35" value="f&lt;sub&gt;4&lt;/sub&gt;" style="text;html=1;align=center;verticalAlign=middle;resizable=0;points=[];autosize=1;strokeColor=none;fillColor=none;" parent="1" vertex="1">
          <mxGeometry x="620" y="320" width="30" height="30" as="geometry" />
        </mxCell>
        <mxCell id="nuxYN99W2bETs9J3J-wg-36" style="edgeStyle=orthogonalEdgeStyle;rounded=0;orthogonalLoop=1;jettySize=auto;html=1;exitX=0;exitY=0.5;exitDx=0;exitDy=0;endArrow=none;endFill=0;startArrow=classic;startFill=1;" parent="1" source="nuxYN99W2bETs9J3J-wg-39" edge="1">
          <mxGeometry relative="1" as="geometry">
            <mxPoint x="500" y="560" as="targetPoint" />
          </mxGeometry>
        </mxCell>
        <mxCell id="nuxYN99W2bETs9J3J-wg-37" style="edgeStyle=orthogonalEdgeStyle;rounded=0;orthogonalLoop=1;jettySize=auto;html=1;exitX=1;exitY=0.5;exitDx=0;exitDy=0;endArrow=none;endFill=0;" parent="1" source="nuxYN99W2bETs9J3J-wg-58" edge="1">
          <mxGeometry relative="1" as="geometry">
            <mxPoint x="730" y="425" as="targetPoint" />
          </mxGeometry>
        </mxCell>
        <mxCell id="nuxYN99W2bETs9J3J-wg-38" style="edgeStyle=orthogonalEdgeStyle;rounded=0;orthogonalLoop=1;jettySize=auto;html=1;exitX=1;exitY=0.5;exitDx=0;exitDy=0;entryX=0;entryY=0.5;entryDx=0;entryDy=0;endArrow=none;endFill=0;" parent="1" source="nuxYN99W2bETs9J3J-wg-39" target="nuxYN99W2bETs9J3J-wg-58" edge="1">
          <mxGeometry relative="1" as="geometry" />
        </mxCell>
        <mxCell id="nuxYN99W2bETs9J3J-wg-39" value="" style="rounded=0;whiteSpace=wrap;html=1;" parent="1" vertex="1">
          <mxGeometry x="600" y="410" width="70" height="30" as="geometry" />
        </mxCell>
        <mxCell id="nuxYN99W2bETs9J3J-wg-40" value="f&lt;sub&gt;5&lt;/sub&gt;" style="text;html=1;align=center;verticalAlign=middle;resizable=0;points=[];autosize=1;strokeColor=none;fillColor=none;" parent="1" vertex="1">
          <mxGeometry x="620" y="350" width="30" height="30" as="geometry" />
        </mxCell>
        <mxCell id="nuxYN99W2bETs9J3J-wg-41" value="e&lt;sub&gt;4&lt;/sub&gt;" style="text;html=1;align=center;verticalAlign=middle;resizable=0;points=[];autosize=1;strokeColor=none;fillColor=none;" parent="1" vertex="1">
          <mxGeometry x="450" y="560" width="40" height="30" as="geometry" />
        </mxCell>
        <mxCell id="nuxYN99W2bETs9J3J-wg-42" value="e&lt;sub&gt;5&lt;/sub&gt;" style="text;html=1;align=center;verticalAlign=middle;resizable=0;points=[];autosize=1;strokeColor=none;fillColor=none;" parent="1" vertex="1">
          <mxGeometry x="480" y="560" width="40" height="30" as="geometry" />
        </mxCell>
        <mxCell id="nuxYN99W2bETs9J3J-wg-43" value="e&lt;sub&gt;6&lt;/sub&gt;" style="text;html=1;align=center;verticalAlign=middle;resizable=0;points=[];autosize=1;strokeColor=none;fillColor=none;" parent="1" vertex="1">
          <mxGeometry x="510" y="560" width="40" height="30" as="geometry" />
        </mxCell>
        <mxCell id="nuxYN99W2bETs9J3J-wg-44" value="" style="edgeStyle=orthogonalEdgeStyle;rounded=0;orthogonalLoop=1;jettySize=auto;html=1;exitX=1;exitY=0.5;exitDx=0;exitDy=0;endArrow=none;endFill=0;" parent="1" source="nuxYN99W2bETs9J3J-wg-9" target="nuxYN99W2bETs9J3J-wg-45" edge="1">
          <mxGeometry relative="1" as="geometry">
            <mxPoint x="540" y="485" as="targetPoint" />
            <mxPoint x="444" y="485" as="sourcePoint" />
          </mxGeometry>
        </mxCell>
        <mxCell id="nuxYN99W2bETs9J3J-wg-45" value="" style="ellipse;whiteSpace=wrap;html=1;fillColor=#000000;" parent="1" vertex="1">
          <mxGeometry x="467" y="482.5" width="6" height="5" as="geometry" />
        </mxCell>
        <mxCell id="nuxYN99W2bETs9J3J-wg-46" value="" style="edgeStyle=orthogonalEdgeStyle;rounded=0;orthogonalLoop=1;jettySize=auto;html=1;exitX=1;exitY=0.5;exitDx=0;exitDy=0;endArrow=none;endFill=0;" parent="1" source="nuxYN99W2bETs9J3J-wg-13" target="nuxYN99W2bETs9J3J-wg-47" edge="1">
          <mxGeometry relative="1" as="geometry">
            <mxPoint x="540" y="515" as="targetPoint" />
            <mxPoint x="444" y="515" as="sourcePoint" />
          </mxGeometry>
        </mxCell>
        <mxCell id="nuxYN99W2bETs9J3J-wg-47" value="" style="ellipse;whiteSpace=wrap;html=1;fillColor=#000000;" parent="1" vertex="1">
          <mxGeometry x="497" y="512.5" width="6" height="5" as="geometry" />
        </mxCell>
        <mxCell id="nuxYN99W2bETs9J3J-wg-48" value="" style="edgeStyle=orthogonalEdgeStyle;rounded=0;orthogonalLoop=1;jettySize=auto;html=1;exitX=1;exitY=0.5;exitDx=0;exitDy=0;endArrow=none;endFill=0;" parent="1" source="nuxYN99W2bETs9J3J-wg-18" target="nuxYN99W2bETs9J3J-wg-49" edge="1">
          <mxGeometry relative="1" as="geometry">
            <mxPoint x="540" y="545" as="targetPoint" />
            <mxPoint x="444" y="545" as="sourcePoint" />
          </mxGeometry>
        </mxCell>
        <mxCell id="nuxYN99W2bETs9J3J-wg-49" value="" style="ellipse;whiteSpace=wrap;html=1;fillColor=#000000;" parent="1" vertex="1">
          <mxGeometry x="467" y="542.5" width="6" height="5" as="geometry" />
        </mxCell>
        <mxCell id="nuxYN99W2bETs9J3J-wg-50" value="" style="edgeStyle=orthogonalEdgeStyle;rounded=0;orthogonalLoop=1;jettySize=auto;html=1;exitX=1;exitY=0.5;exitDx=0;exitDy=0;endArrow=none;endFill=0;" parent="1" source="nuxYN99W2bETs9J3J-wg-49" target="nuxYN99W2bETs9J3J-wg-51" edge="1">
          <mxGeometry relative="1" as="geometry">
            <mxPoint x="540" y="545" as="targetPoint" />
            <mxPoint x="473" y="545" as="sourcePoint" />
          </mxGeometry>
        </mxCell>
        <mxCell id="nuxYN99W2bETs9J3J-wg-51" value="" style="ellipse;whiteSpace=wrap;html=1;fillColor=#000000;" parent="1" vertex="1">
          <mxGeometry x="527" y="542.5" width="6" height="5" as="geometry" />
        </mxCell>
        <mxCell id="nuxYN99W2bETs9J3J-wg-52" style="edgeStyle=orthogonalEdgeStyle;rounded=0;orthogonalLoop=1;jettySize=auto;html=1;endArrow=none;endFill=0;startArrow=classic;startFill=1;entryX=0.511;entryY=-0.081;entryDx=0;entryDy=0;entryPerimeter=0;" parent="1" target="nuxYN99W2bETs9J3J-wg-54" edge="1">
          <mxGeometry relative="1" as="geometry">
            <mxPoint x="690" y="440" as="targetPoint" />
            <mxPoint x="690" y="300" as="sourcePoint" />
          </mxGeometry>
        </mxCell>
        <mxCell id="nuxYN99W2bETs9J3J-wg-53" style="edgeStyle=orthogonalEdgeStyle;rounded=0;orthogonalLoop=1;jettySize=auto;html=1;endArrow=none;endFill=0;startArrow=classic;startFill=1;entryX=0.504;entryY=-0.138;entryDx=0;entryDy=0;entryPerimeter=0;" parent="1" target="nuxYN99W2bETs9J3J-wg-55" edge="1">
          <mxGeometry relative="1" as="geometry">
            <mxPoint x="720" y="460" as="targetPoint" />
            <mxPoint x="720" y="300" as="sourcePoint" />
            <Array as="points" />
          </mxGeometry>
        </mxCell>
        <mxCell id="nuxYN99W2bETs9J3J-wg-54" value="e&lt;sub&gt;7&lt;/sub&gt;" style="text;html=1;align=center;verticalAlign=middle;resizable=0;points=[];autosize=1;strokeColor=none;fillColor=none;" parent="1" vertex="1">
          <mxGeometry x="670" y="470" width="40" height="30" as="geometry" />
        </mxCell>
        <mxCell id="nuxYN99W2bETs9J3J-wg-55" value="e&lt;sub&gt;8&lt;/sub&gt;" style="text;html=1;align=center;verticalAlign=middle;resizable=0;points=[];autosize=1;strokeColor=none;fillColor=none;" parent="1" vertex="1">
          <mxGeometry x="700" y="470" width="40" height="30" as="geometry" />
        </mxCell>
        <mxCell id="nuxYN99W2bETs9J3J-wg-56" value="" style="ellipse;whiteSpace=wrap;html=1;fillColor=#000000;" parent="1" vertex="1">
          <mxGeometry x="687" y="332.5" width="6" height="5" as="geometry" />
        </mxCell>
        <mxCell id="nuxYN99W2bETs9J3J-wg-57" value="" style="ellipse;whiteSpace=wrap;html=1;fillColor=#000000;" parent="1" vertex="1">
          <mxGeometry x="687" y="392.5" width="6" height="5" as="geometry" />
        </mxCell>
        <mxCell id="nuxYN99W2bETs9J3J-wg-58" value="" style="ellipse;whiteSpace=wrap;html=1;fillColor=#000000;" parent="1" vertex="1">
          <mxGeometry x="687" y="422.5" width="6" height="5" as="geometry" />
        </mxCell>
        <mxCell id="nuxYN99W2bETs9J3J-wg-59" value="" style="edgeStyle=orthogonalEdgeStyle;rounded=0;orthogonalLoop=1;jettySize=auto;html=1;exitX=1;exitY=0.5;exitDx=0;exitDy=0;endArrow=none;endFill=0;" parent="1" source="nuxYN99W2bETs9J3J-wg-30" target="nuxYN99W2bETs9J3J-wg-60" edge="1">
          <mxGeometry relative="1" as="geometry">
            <mxPoint x="730" y="365" as="targetPoint" />
            <mxPoint x="670" y="365" as="sourcePoint" />
          </mxGeometry>
        </mxCell>
        <mxCell id="nuxYN99W2bETs9J3J-wg-60" value="" style="ellipse;whiteSpace=wrap;html=1;fillColor=#000000;" parent="1" vertex="1">
          <mxGeometry x="717" y="362.5" width="6" height="5" as="geometry" />
        </mxCell>
        <mxCell id="nuxYN99W2bETs9J3J-wg-61" style="edgeStyle=orthogonalEdgeStyle;rounded=0;orthogonalLoop=1;jettySize=auto;html=1;exitX=1;exitY=0.5;exitDx=0;exitDy=0;endArrow=none;endFill=0;" parent="1" source="nuxYN99W2bETs9J3J-wg-66" edge="1">
          <mxGeometry relative="1" as="geometry">
            <mxPoint x="200" y="430" as="targetPoint" />
          </mxGeometry>
        </mxCell>
        <mxCell id="nuxYN99W2bETs9J3J-wg-62" value="" style="rounded=0;whiteSpace=wrap;html=1;" parent="1" vertex="1">
          <mxGeometry x="100" y="415" width="70" height="30" as="geometry" />
        </mxCell>
        <mxCell id="nuxYN99W2bETs9J3J-wg-63" value="C1" style="text;html=1;align=center;verticalAlign=middle;resizable=0;points=[];autosize=1;strokeColor=none;fillColor=none;" parent="1" vertex="1">
          <mxGeometry x="115" y="385" width="40" height="30" as="geometry" />
        </mxCell>
        <mxCell id="nuxYN99W2bETs9J3J-wg-64" value="e&lt;sub&gt;1&lt;/sub&gt;" style="text;html=1;align=center;verticalAlign=middle;resizable=0;points=[];autosize=1;strokeColor=none;fillColor=none;" parent="1" vertex="1">
          <mxGeometry x="170" y="387.5" width="40" height="30" as="geometry" />
        </mxCell>
        <mxCell id="nuxYN99W2bETs9J3J-wg-65" value="" style="edgeStyle=orthogonalEdgeStyle;rounded=0;orthogonalLoop=1;jettySize=auto;html=1;endArrow=none;endFill=0;exitX=1;exitY=0.167;exitDx=0;exitDy=0;exitPerimeter=0;" parent="1" source="nuxYN99W2bETs9J3J-wg-62" target="nuxYN99W2bETs9J3J-wg-66" edge="1">
          <mxGeometry relative="1" as="geometry">
            <mxPoint x="200" y="430" as="targetPoint" />
            <mxPoint x="220" y="410" as="sourcePoint" />
            <Array as="points">
              <mxPoint x="170" y="430" />
            </Array>
          </mxGeometry>
        </mxCell>
        <mxCell id="nuxYN99W2bETs9J3J-wg-66" value="" style="ellipse;whiteSpace=wrap;html=1;fillColor=#000000;" parent="1" vertex="1">
          <mxGeometry x="187" y="427.5" width="6" height="5" as="geometry" />
        </mxCell>
        <mxCell id="nuxYN99W2bETs9J3J-wg-67" value="f&lt;sub&gt;1&lt;/sub&gt;" style="text;html=1;align=center;verticalAlign=middle;resizable=0;points=[];autosize=1;strokeColor=none;fillColor=none;" parent="1" vertex="1">
          <mxGeometry x="120" y="415" width="30" height="30" as="geometry" />
        </mxCell>
        <mxCell id="nuxYN99W2bETs9J3J-wg-68" value="" style="edgeStyle=orthogonalEdgeStyle;rounded=0;orthogonalLoop=1;jettySize=auto;html=1;exitX=1;exitY=0.5;exitDx=0;exitDy=0;endArrow=none;endFill=0;" parent="1" source="nuxYN99W2bETs9J3J-wg-6" target="nuxYN99W2bETs9J3J-wg-69" edge="1">
          <mxGeometry relative="1" as="geometry">
            <mxPoint x="347" y="635" as="targetPoint" />
            <mxPoint x="300" y="635" as="sourcePoint" />
          </mxGeometry>
        </mxCell>
        <mxCell id="nuxYN99W2bETs9J3J-wg-69" value="" style="ellipse;whiteSpace=wrap;html=1;fillColor=#000000;" parent="1" vertex="1">
          <mxGeometry x="317" y="632.5" width="6" height="5" as="geometry" />
        </mxCell>
        <mxCell id="nuxYN99W2bETs9J3J-wg-70" style="edgeStyle=orthogonalEdgeStyle;rounded=0;orthogonalLoop=1;jettySize=auto;html=1;exitX=1;exitY=0.5;exitDx=0;exitDy=0;endArrow=none;endFill=0;" parent="1" source="nuxYN99W2bETs9J3J-wg-73" edge="1">
          <mxGeometry relative="1" as="geometry">
            <mxPoint x="730" y="455" as="targetPoint" />
          </mxGeometry>
        </mxCell>
        <mxCell id="nuxYN99W2bETs9J3J-wg-71" value="" style="rounded=0;whiteSpace=wrap;html=1;" parent="1" vertex="1">
          <mxGeometry x="600" y="440" width="70" height="30" as="geometry" />
        </mxCell>
        <mxCell id="nuxYN99W2bETs9J3J-wg-72" value="" style="edgeStyle=orthogonalEdgeStyle;rounded=0;orthogonalLoop=1;jettySize=auto;html=1;exitX=1;exitY=0.5;exitDx=0;exitDy=0;endArrow=none;endFill=0;" parent="1" source="nuxYN99W2bETs9J3J-wg-71" target="nuxYN99W2bETs9J3J-wg-73" edge="1">
          <mxGeometry relative="1" as="geometry">
            <mxPoint x="730" y="455" as="targetPoint" />
            <mxPoint x="670" y="455" as="sourcePoint" />
          </mxGeometry>
        </mxCell>
        <mxCell id="nuxYN99W2bETs9J3J-wg-73" value="" style="ellipse;whiteSpace=wrap;html=1;fillColor=#000000;" parent="1" vertex="1">
          <mxGeometry x="687" y="452.5" width="6" height="5" as="geometry" />
        </mxCell>
        <mxCell id="nuxYN99W2bETs9J3J-wg-74" style="edgeStyle=orthogonalEdgeStyle;rounded=0;orthogonalLoop=1;jettySize=auto;html=1;exitX=0;exitY=0.5;exitDx=0;exitDy=0;entryX=0.496;entryY=0.024;entryDx=0;entryDy=0;entryPerimeter=0;endArrow=none;endFill=0;startArrow=classic;startFill=1;" parent="1" source="nuxYN99W2bETs9J3J-wg-71" target="nuxYN99W2bETs9J3J-wg-43" edge="1">
          <mxGeometry relative="1" as="geometry" />
        </mxCell>
      </root>
    </mxGraphModel>
  </diagram>
</mxfile>
